<svg version="1.1" id="Layer_1" xmlns="http://www.w3.org/2000/svg" xmlns:xlink="http://www.w3.org/1999/xlink" x="0px" y="0px"
	 width="100%" viewBox="0 0 512 512" enable-background="new 0 0 512 512" xml:space="preserve">
<path fill="#000000" opacity="1.000000" stroke="none" 
	d="
M232.000000,513.000000 
	C155.022400,513.000000 78.044800,513.000000 1.033602,513.000000 
	C1.033602,342.405396 1.033602,171.810776 1.033602,1.108081 
	C171.544907,1.108081 342.089905,1.108081 513.000000,1.108081 
	C513.000000,77.355591 513.000000,153.711761 512.597107,230.563644 
	C511.814331,230.392319 511.217468,229.764755 511.087830,229.052200 
	C509.686157,221.346436 508.949646,213.463501 506.870239,205.950348 
	C503.786499,194.808273 499.765381,183.925644 496.091064,172.557709 
	C491.393127,162.444702 486.747375,152.706558 482.042938,142.674072 
	C481.578522,141.733292 481.172791,141.086838 480.569275,140.148834 
	C478.573334,136.902481 477.296448,133.359100 474.822144,131.167801 
	C472.598969,129.198898 470.500885,124.477264 466.309509,127.259209 
	C445.723145,140.922913 425.275940,154.796310 404.785614,168.604599 
	C400.208435,171.689148 399.906189,173.572113 402.820129,178.378830 
	C405.211273,182.323059 407.655396,186.262970 409.672211,190.401581 
	C419.609619,210.793839 424.677948,232.456329 426.102173,255.482361 
	C426.087555,260.621613 426.129242,265.299133 426.112030,270.413940 
	C423.835693,283.292603 422.715088,296.054260 419.193604,308.114899 
	C408.937103,343.241882 388.936371,372.011658 359.507965,393.926270 
	C332.946014,413.706268 302.983429,424.594604 269.516052,427.097595 
	C261.374878,427.077637 253.697830,427.116028 245.579590,427.095978 
	C238.791046,426.196259 232.388123,425.648254 226.106552,424.459320 
	C206.189621,420.689545 187.502731,413.659302 170.246567,402.897705 
	C167.544830,401.212769 164.129395,400.629700 161.527527,398.835785 
	C155.841354,394.915253 150.429199,390.590881 144.988800,386.324738 
	C143.570602,385.212616 142.364151,383.784576 141.232132,382.364746 
	C139.721802,380.470459 138.605637,378.216949 136.916107,376.520081 
	C133.659760,373.249695 129.995361,370.722473 127.513741,366.351379 
	C120.948853,354.788116 112.772720,344.122742 106.454498,332.441956 
	C101.977318,324.164734 99.481712,314.815643 96.059067,305.536469 
	C94.293526,295.427155 92.570518,285.726349 90.904938,275.582275 
	C90.689445,272.058441 90.416519,268.977905 90.117416,265.458221 
	C90.103088,262.378326 90.114944,259.737549 90.425781,256.791748 
	C90.829597,251.847549 90.326462,247.097946 91.145874,242.588684 
	C94.465759,224.319321 98.944305,206.363602 107.646484,189.748245 
	C109.851311,185.538498 111.926796,181.261017 114.361435,176.864746 
	C117.627350,174.031906 116.975456,171.599030 113.972557,169.590012 
	C111.422028,167.883621 108.703598,166.428192 105.884224,164.563385 
	C101.508743,161.858292 97.204330,159.612152 93.149078,156.981842 
	C90.878990,155.509430 89.198318,153.138687 86.949173,151.621841 
	C75.265175,143.742126 63.479107,136.013870 51.738377,128.218124 
	C46.976509,125.056267 45.543472,125.336128 42.245762,130.228333 
	C41.421780,131.450729 40.673885,132.724396 39.614159,134.167603 
	C37.856499,137.225815 36.375698,140.090927 34.596661,143.123932 
	C32.825439,146.185165 31.352455,149.078476 29.599213,152.170837 
	C27.841301,155.891647 26.363651,159.413422 24.603886,163.145462 
	C19.215780,178.963196 13.094201,194.329803 9.318463,210.252701 
	C6.180775,223.484833 5.801971,237.371170 4.132644,251.434143 
	C4.101540,259.276337 4.138851,266.652130 4.125287,274.449707 
	C4.707962,278.146759 5.636551,281.397308 5.912938,284.702393 
	C6.468760,291.349091 5.881252,298.183899 7.182529,304.656189 
	C9.770359,317.527527 12.199682,330.621857 16.753305,342.857849 
	C22.308374,357.784821 29.246092,372.326569 36.910118,386.309052 
	C48.408394,407.286896 63.229473,425.909943 81.111694,442.399048 
	C85.822151,446.498962 90.379547,450.303650 95.098732,454.401764 
	C99.632301,458.172974 103.876892,461.826691 108.398735,465.097046 
	C124.460602,476.713379 141.734756,486.146881 159.915543,494.073853 
	C176.891998,501.475739 194.751816,505.482239 212.776825,508.958496 
	C218.402405,510.043427 224.187424,510.284027 229.874420,511.088348 
	C230.657410,511.199066 231.295059,512.337402 232.000000,513.000000 
M175.333145,36.157013 
	C172.189407,39.755730 169.045654,43.354450 165.968536,46.973961 
	C165.968536,46.973961 165.948486,46.907108 165.315628,47.173363 
	C157.616028,55.744961 152.000809,65.674187 148.172485,76.385056 
	C145.094910,84.995453 143.447662,94.117088 141.015854,103.860664 
	C141.065643,113.575294 141.115417,123.289917 141.029556,133.863983 
	C141.991608,138.594238 142.953659,143.324493 143.992065,148.863998 
	C146.455551,156.189575 148.215805,163.853256 151.539276,170.765335 
	C157.216400,182.572403 163.635162,194.046188 170.201599,205.394272 
	C174.715698,213.195480 180.006073,220.547501 184.959106,228.032150 
	C184.959106,228.032150 184.891037,228.042313 184.992493,228.774521 
	C192.848282,242.205856 200.582687,255.710007 208.587952,269.051636 
	C220.942459,289.641724 233.442642,310.144867 245.971252,330.629700 
	C249.135422,335.803253 252.641556,340.767639 256.725281,345.982483 
	C257.474396,346.020630 258.223511,346.058807 259.281982,346.710846 
	C261.386353,344.117859 263.820801,341.726135 265.543488,338.900452 
	C280.995361,313.554932 296.340179,288.144043 311.679596,262.730103 
	C323.244934,243.568878 334.957245,224.492035 346.215668,205.151550 
	C352.898071,193.671982 358.827301,181.753967 365.744751,169.683228 
	C366.826294,166.990433 368.064911,164.348907 368.963562,161.596390 
	C374.398193,144.950699 378.118896,128.174011 376.155090,110.349182 
	C374.761871,97.703651 372.519562,85.469833 366.972992,73.484894 
	C366.972992,73.484894 366.825592,73.052567 366.776947,72.313957 
	C361.375458,61.154175 355.473267,50.336277 346.010437,41.993214 
	C346.010437,41.993214 346.069794,41.970760 345.991974,41.269505 
	C338.659515,32.059898 329.522125,25.125250 318.752411,19.248259 
	C311.832275,16.218857 304.912170,13.189453 297.186859,10.021674 
	C290.214050,9.059383 284.103027,4.665350 276.673431,5.183136 
	C274.171478,5.357502 271.554993,3.888872 268.067413,3.021367 
	C262.045258,3.068706 256.023102,3.116046 249.147873,3.022713 
	C237.163864,4.568067 225.224915,6.308208 213.275742,11.234967 
	C204.833878,16.119944 196.392029,21.004919 187.313324,26.175188 
	C183.526306,29.412937 179.739288,32.650684 175.333145,36.157013 
z"/>
<path fill="#5D5E61" opacity="1.000000" stroke="none" 
	d="
M4.201059,250.967712 
	C5.801971,237.371170 6.180775,223.484833 9.318463,210.252701 
	C13.094201,194.329803 19.215780,178.963196 24.879379,163.228210 
	C27.414740,159.768677 29.402870,156.442490 31.302526,153.066528 
	C31.344408,152.992096 30.376396,152.349396 29.879473,151.971786 
	C31.352455,149.078476 32.825439,146.185165 34.958115,143.106903 
	C40.343086,140.369354 41.985798,136.929764 39.891014,133.974503 
	C40.673885,132.724396 41.421780,131.450729 42.245762,130.228333 
	C45.543472,125.336128 46.976509,125.056267 51.738377,128.218124 
	C63.479107,136.013870 75.265175,143.742126 86.949173,151.621841 
	C89.198318,153.138687 90.878990,155.509430 93.149078,156.981842 
	C97.204330,159.612152 101.508743,161.858292 105.941086,164.907745 
	C106.858299,166.411240 107.438126,167.390457 108.248154,168.110794 
	C110.744293,170.330536 114.403305,171.842972 112.873817,176.343796 
	C112.846687,176.423630 113.647316,176.784775 114.061714,177.014648 
	C111.926796,181.261017 109.851311,185.538498 107.646484,189.748245 
	C98.944305,206.363602 94.465759,224.319321 91.145874,242.588684 
	C90.326462,247.097946 90.829597,251.847549 90.193604,256.488159 
	C89.303467,254.591537 88.944496,252.693420 88.585533,250.795303 
	C88.400047,250.799561 88.214561,250.803818 88.029076,250.808075 
	C88.029076,258.861267 88.029076,266.914490 88.130623,275.072449 
	C88.232170,275.177185 88.640068,275.230255 88.640068,275.230255 
	C88.640068,275.230255 88.983971,274.978699 88.983917,274.539734 
	C89.370438,271.366333 89.757019,268.631836 90.143600,265.897369 
	C90.416519,268.977905 90.689445,272.058441 90.618988,275.827759 
	C89.897667,277.235107 89.096558,278.026306 89.205566,278.661316 
	C90.732315,287.555084 92.362244,296.431641 94.084709,305.289490 
	C94.150139,305.625977 95.402390,305.731720 96.101585,305.945007 
	C99.481712,314.815643 101.977318,324.164734 106.454498,332.441956 
	C112.772720,344.122742 120.948853,354.788116 127.513741,366.351379 
	C129.995361,370.722473 133.659760,373.249695 136.916107,376.520081 
	C138.605637,378.216949 139.721802,380.470459 141.232132,382.364746 
	C142.364151,383.784576 143.570602,385.212616 144.988800,386.324738 
	C150.429199,390.590881 155.841354,394.915253 161.527527,398.835785 
	C164.129395,400.629700 167.544830,401.212769 170.246567,402.897705 
	C187.502731,413.659302 206.189621,420.689545 226.106552,424.459320 
	C232.388123,425.648254 238.791046,426.196259 245.755463,427.434113 
	C253.962753,428.009460 261.552826,428.201050 269.144012,428.315155 
	C269.416870,428.319275 269.701172,427.559631 269.980164,427.155945 
	C302.983429,424.594604 332.946014,413.706268 359.507965,393.926270 
	C388.936371,372.011658 408.937103,343.241882 419.193604,308.114899 
	C422.715088,296.054260 423.835693,283.292603 426.446045,270.235840 
	C428.355316,264.672638 429.396973,259.746887 426.158447,255.020660 
	C424.677948,232.456329 419.609619,210.793839 409.672211,190.401581 
	C407.655396,186.262970 405.211273,182.323059 402.820129,178.378830 
	C399.906189,173.572113 400.208435,171.689148 404.785614,168.604599 
	C425.275940,154.796310 445.723145,140.922913 466.309509,127.259209 
	C470.500885,124.477264 472.598969,129.198898 474.822144,131.167801 
	C477.296448,133.359100 478.573334,136.902481 480.368652,140.280029 
	C480.365845,140.702759 479.997711,141.003860 479.840576,141.178467 
	C479.789459,141.903000 479.895508,142.452957 480.000793,143.001450 
	C480.000000,143.000000 479.997559,142.998169 480.065826,143.350098 
	C483.227997,150.115814 486.297302,156.541595 489.425262,162.938721 
	C491.237885,166.645782 493.144897,170.306717 495.085999,174.290283 
	C495.844635,177.121933 496.433441,179.681259 497.223633,182.176804 
	C503.081207,200.676178 508.228699,219.306091 509.158386,238.859924 
	C509.414856,244.254257 510.361755,249.615768 510.995667,255.461761 
	C511.001068,263.579071 510.883789,271.230286 511.095154,278.872375 
	C511.142883,280.597809 512.334778,282.291626 513.000000,284.000000 
	C513.000000,286.700012 513.000000,289.400024 512.649658,292.477417 
	C511.235168,291.580139 510.171021,290.305542 509.609406,289.632843 
	C507.484344,301.009338 505.167145,313.019440 503.081482,325.069672 
	C502.813965,326.615173 503.750458,328.369019 504.072693,330.414612 
	C499.444519,342.970245 495.440033,355.388977 490.182831,367.252563 
	C479.310669,391.787048 463.963501,413.605438 445.349304,432.717010 
	C433.180878,445.210541 419.500183,456.423767 405.533325,466.929443 
	C382.643738,484.146698 356.672699,495.551208 329.177612,503.323151 
	C314.129517,507.576782 298.861267,510.986023 283.210846,510.654419 
	C281.393036,508.176025 279.445892,508.391724 277.970581,511.381287 
	C277.796539,511.868835 277.677277,512.032898 277.704590,512.167175 
	C277.762665,512.453003 277.896973,512.723328 278.000000,513.000000 
	C276.611115,513.000000 275.222198,513.000000 273.390045,512.604370 
	C271.974426,511.489258 271.015289,510.167145 270.027649,510.145477 
	C262.079559,509.971130 254.122696,509.929199 246.178223,510.169128 
	C245.091309,510.201935 244.058060,512.012512 242.999985,513.000000 
	C239.638718,513.000000 236.277420,513.000000 232.458069,513.000000 
	C231.295059,512.337402 230.657410,511.199066 229.874420,511.088348 
	C224.187424,510.284027 218.402405,510.043427 212.776825,508.958496 
	C194.751816,505.482239 176.891998,501.475739 159.915543,494.073853 
	C141.734756,486.146881 124.460602,476.713379 108.398735,465.097046 
	C103.876892,461.826691 99.632301,458.172974 95.182869,454.131958 
	C91.132011,449.653870 87.188141,445.707916 83.133141,441.879730 
	C82.787148,441.553131 81.700958,442.010590 80.958626,442.103821 
	C63.229473,425.909943 48.408394,407.286896 36.910118,386.309052 
	C29.246092,372.326569 22.308374,357.784821 16.753305,342.857849 
	C12.199682,330.621857 9.770359,317.527527 7.182529,304.656189 
	C5.881252,298.183899 6.468760,291.349091 5.912938,284.702393 
	C5.636551,281.397308 4.707962,278.146759 4.456653,274.260193 
	C5.019055,266.382660 5.212950,259.116638 5.328698,251.849411 
	C5.333282,251.561569 4.593833,251.261887 4.201059,250.967712 
z"/>
<path fill="#000000" opacity="1.000000" stroke="none" 
	d="
M278.468658,513.000000 
	C277.896973,512.723328 277.762665,512.453003 277.704590,512.167175 
	C277.677277,512.032898 277.796539,511.868835 278.384491,511.368225 
	C280.298920,510.961609 281.678192,510.905090 283.057495,510.848572 
	C298.861267,510.986023 314.129517,507.576782 329.177612,503.323151 
	C356.672699,495.551208 382.643738,484.146698 405.533325,466.929443 
	C419.500183,456.423767 433.180878,445.210541 445.349304,432.717010 
	C463.963501,413.605438 479.310669,391.787048 490.182831,367.252563 
	C495.440033,355.388977 499.444519,342.970245 504.360779,330.169250 
	C506.834229,318.575348 508.936920,307.609680 511.157318,296.667938 
	C511.289948,296.014221 512.364014,295.551575 513.000000,295.000000 
	C513.000000,367.596436 513.000000,440.192871 513.000000,513.000000 
	C434.979218,513.000000 356.958282,513.000000 278.468658,513.000000 
z"/>
<path fill="#555759" opacity="1.000000" stroke="none" 
	d="
M510.991913,254.992340 
	C510.361755,249.615768 509.414856,244.254257 509.158386,238.859924 
	C508.228699,219.306091 503.081207,200.676178 497.223633,182.176804 
	C496.433441,179.681259 495.844635,177.121933 495.251648,174.090591 
	C495.608246,173.370209 495.875793,173.151382 496.143311,172.932556 
	C499.765381,183.925644 503.786499,194.808273 506.870239,205.950348 
	C508.949646,213.463501 509.686157,221.346436 511.087830,229.052200 
	C511.217468,229.764755 511.814331,230.392319 512.597107,231.029678 
	C513.000000,234.692902 513.000000,238.385818 512.650635,242.703918 
	C511.864868,247.216873 511.428375,251.104599 510.991913,254.992340 
z"/>
<path fill="#535658" opacity="1.000000" stroke="none" 
	d="
M513.000000,294.666687 
	C512.364014,295.551575 511.289948,296.014221 511.157318,296.667938 
	C508.936920,307.609680 506.834229,318.575348 504.417297,329.781006 
	C503.750458,328.369019 502.813965,326.615173 503.081482,325.069672 
	C505.167145,313.019440 507.484344,301.009338 509.609406,289.632843 
	C510.171021,290.305542 511.235168,291.580139 512.649658,292.927368 
	C513.000000,293.444458 513.000000,293.888885 513.000000,294.666687 
z"/>
<path fill="#626766" opacity="1.000000" stroke="none" 
	d="
M510.995667,255.461761 
	C511.428375,251.104599 511.864868,247.216873 512.650635,243.164566 
	C513.000000,256.354218 513.000000,269.708466 513.000000,283.531342 
	C512.334778,282.291626 511.142883,280.597809 511.095154,278.872375 
	C510.883789,271.230286 511.001068,263.579071 510.995667,255.461761 
z"/>
<path fill="#555759" opacity="1.000000" stroke="none" 
	d="
M243.399979,513.000000 
	C244.058060,512.012512 245.091309,510.201935 246.178223,510.169128 
	C254.122696,509.929199 262.079559,509.971130 270.027649,510.145477 
	C271.015289,510.167145 271.974426,511.489258 272.973389,512.604370 
	C271.933319,513.000000 270.866669,513.000000 269.412018,512.695068 
	C268.795441,511.997833 268.571228,511.265778 268.337555,511.262756 
	C261.929657,511.179291 255.519745,511.111786 249.113678,511.230286 
	C248.398453,511.243530 247.704071,512.382874 247.000000,513.000000 
	C245.933334,513.000000 244.866653,513.000000 243.399979,513.000000 
z"/>
<path fill="#5F6265" opacity="1.000000" stroke="none" 
	d="
M247.468582,513.000000 
	C247.704071,512.382874 248.398453,511.243530 249.113678,511.230286 
	C255.519745,511.111786 261.929657,511.179291 268.337555,511.262756 
	C268.571228,511.265778 268.795441,511.997833 269.012024,512.695068 
	C261.979065,513.000000 254.958099,513.000000 247.468582,513.000000 
z"/>
<path fill="#F5B91A" opacity="1.000000" stroke="none" 
	d="
M258.972626,346.096954 
	C258.223511,346.058807 257.474396,346.020630 256.335602,345.543152 
	C255.205765,343.267609 254.697540,341.292206 253.691284,339.615723 
	C232.081360,303.611908 210.430191,267.632782 188.708481,231.696365 
	C187.828766,230.240936 186.180969,229.249771 184.891037,228.042313 
	C184.891037,228.042313 184.959106,228.032150 184.947830,227.688171 
	C182.134705,221.912628 179.506210,216.382828 176.495697,211.069519 
	C169.783142,199.222458 162.406036,187.725922 156.212234,175.619705 
	C151.700089,166.800400 148.646576,157.234818 144.955231,147.576950 
	C144.304565,142.436859 143.641449,137.721756 142.971863,132.579865 
	C142.968033,122.762695 142.970673,113.372322 142.986267,103.570305 
	C145.231003,88.693047 150.135468,75.163567 157.269882,62.415138 
	C160.162811,57.245823 163.055634,52.076454 165.948486,46.907108 
	C165.948486,46.907108 165.968536,46.973961 166.279312,46.908791 
	C170.069839,43.573280 173.549591,40.302937 177.313629,36.857803 
	C181.397385,33.453873 185.196838,30.224737 189.304199,26.845636 
	C197.743484,22.134256 205.874847,17.572842 214.387512,12.984493 
	C226.518112,10.293530 238.267441,7.629499 250.483307,4.972111 
	C255.399582,4.984050 259.857727,5.146907 264.294617,4.910722 
	C265.886383,4.825987 267.426941,3.778980 268.990875,3.171155 
	C271.554993,3.888872 274.171478,5.357502 276.673431,5.183136 
	C284.103027,4.665350 290.214050,9.059383 297.715302,10.407213 
	C305.145203,14.211157 312.046631,17.629560 319.072510,21.362591 
	C325.726013,26.830412 332.217957,32.031776 338.804291,37.110676 
	C341.106445,38.885918 343.641235,40.359444 346.069794,41.970760 
	C346.069794,41.970760 346.010437,41.993214 346.027344,42.329712 
	C346.283081,43.443398 346.359314,44.326233 346.785278,44.981796 
	C352.510345,53.792889 358.253418,62.592888 364.096497,71.325722 
	C364.643890,72.143768 365.899078,72.488213 366.825592,73.052567 
	C366.825592,73.052567 366.972992,73.484894 366.801453,73.993973 
	C366.858002,76.233398 366.968506,77.988968 367.333313,79.689987 
	C369.522064,89.895561 372.767975,99.989983 373.786774,110.306602 
	C375.836578,131.063828 371.512573,150.989166 362.860840,170.323654 
	C361.108002,174.112564 359.797058,177.753281 357.868042,181.030167 
	C345.895447,201.368256 333.853333,221.666245 321.699799,241.896744 
	C309.123505,262.830994 296.356598,283.650635 283.745667,304.564209 
	C275.421631,318.368469 267.225830,332.250000 258.972626,346.096954 
M304.965424,109.210373 
	C302.315002,103.802551 299.664581,98.394730 296.866943,92.307938 
	C293.475830,85.436119 287.843262,81.042328 280.523865,77.485367 
	C270.381287,70.996902 259.241486,71.010681 247.987305,72.917732 
	C245.142212,73.399834 242.570938,75.497818 239.109344,76.931259 
	C236.404831,78.284477 233.700302,79.637695 230.303421,81.125534 
	C228.631668,82.159485 226.723389,82.943756 225.326111,84.267441 
	C215.432465,93.639961 210.075851,105.319000 210.132828,118.834335 
	C210.226410,141.020203 223.894974,159.074036 245.946548,165.469559 
	C251.554184,167.095917 257.970856,165.932724 264.838898,166.034927 
	C269.894012,164.357864 274.949158,162.680801 280.687012,160.854874 
	C294.071167,153.364304 303.302551,142.890640 305.448090,126.311073 
	C305.306091,120.870537 305.164093,115.429993 304.965424,109.210373 
z"/>
<path fill="#E7B931" opacity="1.000000" stroke="none" 
	d="
M259.127319,346.403900 
	C267.225830,332.250000 275.421631,318.368469 283.745667,304.564209 
	C296.356598,283.650635 309.123505,262.830994 321.699799,241.896744 
	C333.853333,221.666245 345.895447,201.368256 357.868042,181.030167 
	C359.797058,177.753281 361.108002,174.112564 363.207031,170.325500 
	C364.171326,170.018341 364.633240,170.025726 365.095184,170.033096 
	C358.827301,181.753967 352.898071,193.671982 346.215668,205.151550 
	C334.957245,224.492035 323.244934,243.568878 311.679596,262.730103 
	C296.340179,288.144043 280.995361,313.554932 265.543488,338.900452 
	C263.820801,341.726135 261.386353,344.117859 259.127319,346.403900 
z"/>
<path fill="#EAB834" opacity="1.000000" stroke="none" 
	d="
M184.941772,228.408417 
	C186.180969,229.249771 187.828766,230.240936 188.708481,231.696365 
	C210.430191,267.632782 232.081360,303.611908 253.691284,339.615723 
	C254.697540,341.292206 255.205765,343.267609 255.968231,345.465973 
	C252.641556,340.767639 249.135422,335.803253 245.971252,330.629700 
	C233.442642,310.144867 220.942459,289.641724 208.587952,269.051636 
	C200.582687,255.710007 192.848282,242.205856 184.941772,228.408417 
z"/>
<path fill="#EAB72D" opacity="1.000000" stroke="none" 
	d="
M365.419983,169.858154 
	C364.633240,170.025726 364.171326,170.018341 363.363220,170.009125 
	C371.512573,150.989166 375.836578,131.063828 373.786774,110.306602 
	C372.767975,99.989983 369.522064,89.895561 367.333313,79.689987 
	C366.968506,77.988968 366.858002,76.233398 366.847351,74.217690 
	C372.519562,85.469833 374.761871,97.703651 376.155090,110.349182 
	C378.118896,128.174011 374.398193,144.950699 368.963562,161.596390 
	C368.064911,164.348907 366.826294,166.990433 365.419983,169.858154 
z"/>
<path fill="#EAB834" opacity="1.000000" stroke="none" 
	d="
M144.942780,148.001938 
	C148.646576,157.234818 151.700089,166.800400 156.212234,175.619705 
	C162.406036,187.725922 169.783142,199.222458 176.495697,211.069519 
	C179.506210,216.382828 182.134705,221.912628 184.943024,227.722229 
	C180.006073,220.547501 174.715698,213.195480 170.201599,205.394272 
	C163.635162,194.046188 157.216400,182.572403 151.539276,170.765335 
	C148.215805,163.853256 146.455551,156.189575 144.210526,148.446075 
	C144.600250,148.019440 144.771515,148.010696 144.942780,148.001938 
z"/>
<path fill="#EBB52D" opacity="1.000000" stroke="none" 
	d="
M165.632050,47.040237 
	C163.055634,52.076454 160.162811,57.245823 157.269882,62.415138 
	C150.135468,75.163567 145.231003,88.693047 142.756134,103.458603 
	C142.063934,103.509666 141.614838,103.260765 141.165756,103.011871 
	C143.447662,94.117088 145.094910,84.995453 148.172485,76.385056 
	C152.000809,65.674187 157.616028,55.744961 165.632050,47.040237 
z"/>
<path fill="#56585A" opacity="1.000000" stroke="none" 
	d="
M496.091064,172.557709 
	C495.875793,173.151382 495.608246,173.370209 495.175079,173.788727 
	C493.144897,170.306717 491.237885,166.645782 489.425262,162.938721 
	C486.297302,156.541595 483.227997,150.115814 480.416565,143.346680 
	C481.166565,142.983673 481.634094,142.976044 482.101624,142.968414 
	C486.747375,152.706558 491.393127,162.444702 496.091064,172.557709 
z"/>
<path fill="#EDBB2A" opacity="1.000000" stroke="none" 
	d="
M250.016769,4.965467 
	C238.267441,7.629499 226.518112,10.293530 214.385864,12.675004 
	C214.003616,11.980067 214.004288,11.567687 214.004974,11.155308 
	C225.224915,6.308208 237.163864,4.568067 249.575531,3.393632 
	C250.007706,4.164856 250.012238,4.565161 250.016769,4.965467 
z"/>
<path fill="#56585A" opacity="1.000000" stroke="none" 
	d="
M96.059067,305.536469 
	C95.402390,305.731720 94.150139,305.625977 94.084709,305.289490 
	C92.362244,296.431641 90.732315,287.555084 89.205566,278.661316 
	C89.096558,278.026306 89.897667,277.235107 90.561554,276.271057 
	C92.570518,285.726349 94.293526,295.427155 96.059067,305.536469 
z"/>
<path fill="#E7B42E" opacity="1.000000" stroke="none" 
	d="
M366.801270,72.683258 
	C365.899078,72.488213 364.643890,72.143768 364.096497,71.325722 
	C358.253418,62.592888 352.510345,53.792889 346.785278,44.981796 
	C346.359314,44.326233 346.283081,43.443398 346.038757,42.300114 
	C355.473267,50.336277 361.375458,61.154175 366.801270,72.683258 
z"/>
<path fill="#E7B42E" opacity="1.000000" stroke="none" 
	d="
M346.030884,41.620132 
	C343.641235,40.359444 341.106445,38.885918 338.804291,37.110676 
	C332.217957,32.031776 325.726013,26.830412 319.097717,21.072037 
	C319.012146,20.273283 319.025848,20.079710 319.039581,19.886135 
	C329.522125,25.125250 338.659515,32.059898 346.030884,41.620132 
z"/>
<path fill="#E8B731" opacity="1.000000" stroke="none" 
	d="
M213.640350,11.195137 
	C214.004288,11.567687 214.003616,11.980067 214.004578,12.701937 
	C205.874847,17.572842 197.743484,22.134256 189.106537,26.684471 
	C188.384048,26.412144 188.167099,26.151018 187.950165,25.889893 
	C196.392029,21.004919 204.833878,16.119944 213.640350,11.195137 
z"/>
<path fill="#EEAD28" opacity="1.000000" stroke="none" 
	d="
M141.090805,103.436264 
	C141.614838,103.260765 142.063934,103.509666 142.743164,103.870255 
	C142.970673,113.372322 142.968033,122.762695 142.669952,132.578262 
	C141.971420,133.003815 141.568314,133.004181 141.165192,133.004547 
	C141.115417,123.289917 141.065643,113.575294 141.090805,103.436264 
z"/>
<path fill="#65676A" opacity="1.000000" stroke="none" 
	d="
M269.516052,427.097595 
	C269.701172,427.559631 269.416870,428.319275 269.144012,428.315155 
	C261.552826,428.201050 253.962753,428.009460 246.196640,427.492523 
	C253.697830,427.116028 261.374878,427.077637 269.516052,427.097595 
z"/>
<path fill="#ECB628" opacity="1.000000" stroke="none" 
	d="
M318.895996,19.567196 
	C319.025848,20.079710 319.012146,20.273283 318.973267,20.757412 
	C312.046631,17.629560 305.145203,14.211157 298.117889,10.476400 
	C304.912170,13.189453 311.832275,16.218857 318.895996,19.567196 
z"/>
<path fill="#4E4E51" opacity="1.000000" stroke="none" 
	d="
M4.132644,251.434143 
	C4.593833,251.261887 5.333282,251.561569 5.328698,251.849411 
	C5.212950,259.116638 5.019055,266.382660 4.507526,273.838379 
	C4.138851,266.652130 4.101540,259.276337 4.132644,251.434143 
z"/>
<path fill="#555759" opacity="1.000000" stroke="none" 
	d="
M81.111694,442.399048 
	C81.700958,442.010590 82.787148,441.553131 83.133141,441.879730 
	C87.188141,445.707916 91.132011,449.653870 95.021080,453.838562 
	C90.379547,450.303650 85.822151,446.498962 81.111694,442.399048 
z"/>
<path fill="#535658" opacity="1.000000" stroke="none" 
	d="
M114.361435,176.864746 
	C113.647316,176.784775 112.846687,176.423630 112.873817,176.343796 
	C114.403305,171.842972 110.744293,170.330536 108.248154,168.110794 
	C107.438126,167.390457 106.858299,166.411240 106.116318,165.206085 
	C108.703598,166.428192 111.422028,167.883621 113.972557,169.590012 
	C116.975456,171.599030 117.627350,174.031906 114.361435,176.864746 
z"/>
<path fill="#EAB834" opacity="1.000000" stroke="none" 
	d="
M250.483307,4.972110 
	C250.012238,4.565161 250.007706,4.164856 250.002045,3.463968 
	C256.023102,3.116046 262.045258,3.068706 268.529144,3.096259 
	C267.426941,3.778980 265.886383,4.825987 264.294617,4.910722 
	C259.857727,5.146907 255.399582,4.984050 250.483307,4.972110 
z"/>
<path fill="#4E4E51" opacity="1.000000" stroke="none" 
	d="
M88.029076,274.967682 
	C88.029076,266.914490 88.029076,258.861267 88.029076,250.808075 
	C88.214561,250.803818 88.400047,250.799561 88.585533,250.795303 
	C88.944496,252.693420 89.303467,254.591537 89.894623,256.793213 
	C90.114944,259.737549 90.103088,262.378326 90.117416,265.458221 
	C89.757019,268.631836 89.370438,271.366333 88.745216,274.540344 
	C88.506577,274.979919 88.029076,274.967682 88.029076,274.967682 
z"/>
<path fill="#E7B42E" opacity="1.000000" stroke="none" 
	d="
M187.631744,26.032539 
	C188.167099,26.151018 188.384048,26.412144 188.798645,26.834435 
	C185.196838,30.224737 181.397385,33.453873 177.110535,36.689426 
	C176.399521,36.426708 176.175903,36.157574 175.952286,35.888435 
	C179.739288,32.650684 183.526306,29.412937 187.631744,26.032539 
z"/>
<path fill="#EBB52D" opacity="1.000000" stroke="none" 
	d="
M141.097382,133.434265 
	C141.568314,133.004181 141.971420,133.003815 142.676437,133.005066 
	C143.641449,137.721756 144.304565,142.436859 144.955231,147.576950 
	C144.771515,148.010696 144.600250,148.019440 144.172348,148.041458 
	C142.953659,143.324493 141.991608,138.594238 141.097382,133.434265 
z"/>
<path fill="#56585A" opacity="1.000000" stroke="none" 
	d="
M29.599213,152.170837 
	C30.376396,152.349396 31.344408,152.992096 31.302526,153.066528 
	C29.402870,156.442490 27.414740,159.768677 25.161495,163.017944 
	C26.363651,159.413422 27.841301,155.891647 29.599213,152.170837 
z"/>
<path fill="#65676A" opacity="1.000000" stroke="none" 
	d="
M426.102173,255.482361 
	C429.396973,259.746887 428.355316,264.672638 426.504944,269.798584 
	C426.129242,265.299133 426.087555,260.621613 426.102173,255.482361 
z"/>
<path fill="#EBB52D" opacity="1.000000" stroke="none" 
	d="
M175.642715,36.022724 
	C176.175903,36.157574 176.399521,36.426708 176.826248,36.864220 
	C173.549591,40.302937 170.069839,43.573280 166.246002,46.898396 
	C169.045654,43.354450 172.189407,39.755730 175.642715,36.022724 
z"/>
<path fill="#56585A" opacity="1.000000" stroke="none" 
	d="
M39.614159,134.167603 
	C41.985798,136.929764 40.343086,140.369354 35.256355,142.938995 
	C36.375698,140.090927 37.856499,137.225815 39.614159,134.167603 
z"/>
<path fill="#5D5E61" opacity="1.000000" stroke="none" 
	d="
M482.042969,142.674072 
	C481.634094,142.976044 481.166565,142.983673 480.348267,142.994736 
	C479.997559,142.998169 480.000000,143.000000 480.000793,142.668213 
	C480.000305,141.892227 479.998993,141.448044 479.997711,141.003860 
	C479.997711,141.003860 480.365845,140.702759 480.566467,140.571564 
	C481.172791,141.086838 481.578522,141.733292 482.042969,142.674072 
z"/>
<path fill="#555759" opacity="1.000000" stroke="none" 
	d="
M283.210846,510.654419 
	C281.678192,510.905090 280.298920,510.961609 278.505737,511.031219 
	C279.445892,508.391724 281.393036,508.176025 283.210846,510.654419 
z"/>
<path fill="#56585A" opacity="1.000000" stroke="none" 
	d="
M479.840576,141.178467 
	C479.998993,141.448044 480.000305,141.892227 480.001587,142.669647 
	C479.895508,142.452957 479.789459,141.903000 479.840576,141.178467 
z"/>
<path fill="#56585A" opacity="1.000000" stroke="none" 
	d="
M88.130623,275.072449 
	C88.029076,274.967682 88.506577,274.979919 88.745270,274.979309 
	C88.983971,274.978699 88.640068,275.230255 88.640068,275.230255 
	C88.640068,275.230255 88.232170,275.177185 88.130623,275.072449 
z"/>
<path fill="#E8B62E" opacity="1.000000" stroke="none" 
	d="
M264.015808,166.051285 
	C257.970856,165.932724 251.554184,167.095917 245.946548,165.469559 
	C223.894974,159.074036 210.226410,141.020203 210.132828,118.834335 
	C210.075851,105.319000 215.432465,93.639961 225.326111,84.267441 
	C226.723389,82.943756 228.631668,82.159485 230.661804,81.342636 
	C231.027954,81.749306 231.035706,81.938866 230.908234,82.439590 
	C227.795776,85.715714 224.523727,88.442497 221.898636,91.691917 
	C215.015488,100.212082 211.635925,110.283524 212.205322,121.052612 
	C212.712189,130.638992 216.062393,139.626190 222.090118,147.455093 
	C231.336624,159.464645 250.351746,167.443680 264.001068,164.471191 
	C264.006226,165.208298 264.011017,165.629791 264.015808,166.051285 
z"/>
<path fill="#EAB72D" opacity="1.000000" stroke="none" 
	d="
M305.001648,127.006264 
	C303.302551,142.890640 294.071167,153.364304 280.147156,160.764587 
	C279.391296,160.407806 279.175323,160.141312 279.119446,159.564117 
	C292.318787,152.263153 300.760498,141.867065 303.475769,127.003036 
	C304.187836,127.004272 304.594757,127.005264 305.001648,127.006264 
z"/>
<path fill="#EDB72D" opacity="1.000000" stroke="none" 
	d="
M239.873856,76.853271 
	C242.570938,75.497818 245.142212,73.399834 247.987305,72.917732 
	C259.241486,71.010681 270.381287,70.996902 280.764771,78.039597 
	C281.002686,79.009148 280.999695,79.424461 280.640259,79.801147 
	C267.323059,72.201180 253.833237,72.574532 240.018845,77.024399 
	C239.969879,76.967896 239.873856,76.853279 239.873856,76.853271 
z"/>
<path fill="#E8B731" opacity="1.000000" stroke="none" 
	d="
M280.996704,79.839767 
	C280.999695,79.424461 281.002686,79.009148 281.010620,78.281815 
	C287.843262,81.042328 293.475830,85.436119 296.772339,92.828400 
	C296.677734,93.348869 296.341675,93.711159 296.087158,93.486244 
	C290.887360,88.787476 285.942017,84.313622 280.996704,79.839767 
z"/>
<path fill="#E8B731" opacity="1.000000" stroke="none" 
	d="
M296.845947,93.167892 
	C299.664581,98.394730 302.315002,103.802551 304.920654,109.888954 
	C304.548492,111.054054 304.221039,111.540573 303.556458,111.834366 
	C300.926788,105.664810 298.634216,99.687988 296.341675,93.711159 
	C296.341675,93.711159 296.677734,93.348869 296.845947,93.167892 
z"/>
<path fill="#ECB628" opacity="1.000000" stroke="none" 
	d="
M303.893585,112.027084 
	C304.221039,111.540573 304.548492,111.054054 304.948975,110.278496 
	C305.164093,115.429993 305.306091,120.870537 305.224854,126.658669 
	C304.594757,127.005264 304.187836,127.004272 303.567383,126.593338 
	C303.533752,121.464630 303.713684,116.745857 303.893585,112.027084 
z"/>
<path fill="#EAB834" opacity="1.000000" stroke="none" 
	d="
M278.959351,159.874832 
	C279.175323,160.141312 279.391296,160.407806 279.805786,160.839020 
	C274.949158,162.680801 269.894012,164.357864 264.427368,166.043106 
	C264.011017,165.629791 264.006226,165.208298 264.409882,164.397766 
	C269.531982,162.630753 274.245667,161.252792 278.959351,159.874832 
z"/>
<path fill="#EDB72D" opacity="1.000000" stroke="none" 
	d="
M231.043472,82.128426 
	C231.035706,81.938866 231.027954,81.749306 231.007996,81.275330 
	C233.700302,79.637695 236.404831,78.284477 239.491608,76.892273 
	C239.873856,76.853279 239.969879,76.967896 239.859802,77.341324 
	C236.847656,79.185982 233.945557,80.657204 231.043472,82.128426 
z"/>
<path fill="#000000" opacity="1.000000" stroke="none" 
	d="
M230.908234,82.439590 
	C233.945557,80.657204 236.847656,79.185982 239.908783,77.397827 
	C253.833237,72.574532 267.323059,72.201180 280.640259,79.801140 
	C285.942017,84.313622 290.887360,88.787476 296.087158,93.486244 
	C298.634216,99.687988 300.926788,105.664810 303.556458,111.834366 
	C303.713684,116.745857 303.533752,121.464630 303.262207,126.593094 
	C300.760498,141.867065 292.318787,152.263153 279.119446,159.564117 
	C274.245667,161.252792 269.531982,162.630753 264.409485,164.082138 
	C250.351746,167.443680 231.336624,159.464645 222.090118,147.455093 
	C216.062393,139.626190 212.712189,130.638992 212.205322,121.052612 
	C211.635925,110.283524 215.015488,100.212082 221.898636,91.691917 
	C224.523727,88.442497 227.795776,85.715714 230.908234,82.439590 
z"/>
</svg>